<svg xmlns="http://www.w3.org/2000/svg" viewBox="0 0 1280 720" width="1280" height="720">
  <rect width="1280" height="720" fill="#FDFBF7" />

  <g id="header">
    <text x="60" y="50" font-family="Arial, sans-serif" font-size="12" fill="#B0A898">COURSE DEFENSE · 09</text>
    <path fill="#C07040" d="M61.50,65 H108.50 A1.50,1.50 0 0 1 110,66.50 V66.50 A1.50,1.50 0 0 1 108.50,68 H61.50 A1.50,1.50 0 0 1 60,66.50 V66.50 A1.50,1.50 0 0 1 61.50,65 Z" />
    <text x="60" y="108" font-family="Microsoft YaHei, Arial, sans-serif" font-size="38" font-weight="bold" fill="#2D2A26">尝试多种课内模型，用结果选择方案</text>
  </g>

  <text x="60" y="150" font-family="Microsoft YaHei, PingFang SC, Arial, sans-serif" font-size="20" fill="#8C8578">把光谱估计作为回归问题，尝试课程中涉及的模型路线</text>

  
  <g id="models">
    <path fill="#64748B" fill-opacity="0.06" d="M72,180 H268 A12,12 0 0 1 280,192 V448 A12,12 0 0 1 268,460 H72 A12,12 0 0 1 60,448 V192 A12,12 0 0 1 72,180 Z" />
    <path fill="#64748B" d="M62,180 H278 A2,2 0 0 1 280,182 V183 A2,2 0 0 1 278,185 H62 A2,2 0 0 1 60,183 V182 A2,2 0 0 1 62,180 Z" />
    <text x="170" y="218" font-family="Microsoft YaHei, Arial, sans-serif" font-size="20" font-weight="bold" fill="#64748B" text-anchor="middle">Linear Regression</text>
    <text x="170" y="248" font-family="Microsoft YaHei, PingFang SC, Arial, sans-serif" font-size="16" fill="#8C8578" text-anchor="middle">线性基准模型</text>
    <line x1="80" y1="268" x2="260" y2="268" stroke="#E8E0D4" stroke-width="1" />
    <text x="80" y="300" font-family="Microsoft YaHei, PingFang SC, Arial, sans-serif" font-size="17" fill="#2D2A26">观察问题是否接近线性关系</text>
    <text x="80" y="330" font-family="Microsoft YaHei, PingFang SC, Arial, sans-serif" font-size="17" fill="#2D2A26">最简单的回归模型</text>
    <text x="80" y="360" font-family="Microsoft YaHei, PingFang SC, Arial, sans-serif" font-size="16" fill="#E06B5E" font-weight="bold">误差明显较大</text>

    <path fill="#2AA3A0" fill-opacity="0.06" d="M312,180 H508 A12,12 0 0 1 520,192 V448 A12,12 0 0 1 508,460 H312 A12,12 0 0 1 300,448 V192 A12,12 0 0 1 312,180 Z" />
    <path fill="#2AA3A0" d="M302,180 H518 A2,2 0 0 1 520,182 V183 A2,2 0 0 1 518,185 H302 A2,2 0 0 1 300,183 V182 A2,2 0 0 1 302,180 Z" />
    <text x="410" y="218" font-family="Microsoft YaHei, Arial, sans-serif" font-size="20" font-weight="bold" fill="#2AA3A0" text-anchor="middle">KNN</text>
    <text x="410" y="248" font-family="Microsoft YaHei, PingFang SC, Arial, sans-serif" font-size="16" fill="#8C8578" text-anchor="middle">K 近邻回归</text>
    <line x1="320" y1="268" x2="500" y2="268" stroke="#E8E0D4" stroke-width="1" />
    <text x="320" y="300" font-family="Microsoft YaHei, PingFang SC, Arial, sans-serif" font-size="17" fill="#2D2A26">基于邻域的非参数模型</text>
    <text x="320" y="330" font-family="Microsoft YaHei, PingFang SC, Arial, sans-serif" font-size="17" fill="#2D2A26">MAE 略低但 RMSE 不占优</text>

    <path fill="#E8842A" fill-opacity="0.06" d="M552,180 H748 A12,12 0 0 1 760,192 V448 A12,12 0 0 1 748,460 H552 A12,12 0 0 1 540,448 V192 A12,12 0 0 1 552,180 Z" />
    <path fill="#E8842A" d="M542,180 H758 A2,2 0 0 1 760,182 V183 A2,2 0 0 1 758,185 H542 A2,2 0 0 1 540,183 V182 A2,2 0 0 1 542,180 Z" />
    <text x="650" y="218" font-family="Microsoft YaHei, Arial, sans-serif" font-size="20" font-weight="bold" fill="#E8842A" text-anchor="middle">Decision Tree</text>
    <text x="650" y="248" font-family="Microsoft YaHei, PingFang SC, Arial, sans-serif" font-size="16" fill="#8C8578" text-anchor="middle">决策树回归</text>
    <line x1="560" y1="268" x2="740" y2="268" stroke="#E8E0D4" stroke-width="1" />
    <text x="560" y="300" font-family="Microsoft YaHei, PingFang SC, Arial, sans-serif" font-size="17" fill="#2D2A26">单棵决策树，中间对比</text>
    <text x="560" y="330" font-family="Microsoft YaHei, PingFang SC, Arial, sans-serif" font-size="17" fill="#2D2A26">稳定性不如集成模型</text>

    <path fill="#C07040" fill-opacity="0.08" d="M792,180 H988 A12,12 0 0 1 1000,192 V448 A12,12 0 0 1 988,460 H792 A12,12 0 0 1 780,448 V192 A12,12 0 0 1 792,180 Z" />
    <path fill="#C07040" d="M782,180 H998 A2,2 0 0 1 1000,182 V183 A2,2 0 0 1 998,185 H782 A2,2 0 0 1 780,183 V182 A2,2 0 0 1 782,180 Z" />
    
    <image href="../images/icon_crown.svg" x="870" y="165" width="40" height="40" fill="#2D2A26" />
    <text x="890" y="218" font-family="Microsoft YaHei, Arial, sans-serif" font-size="20" font-weight="bold" fill="#C07040" text-anchor="middle">Random Forest</text>
    <text x="890" y="248" font-family="Microsoft YaHei, PingFang SC, Arial, sans-serif" font-size="16" fill="#8C8578" text-anchor="middle">随机森林回归</text>
    <line x1="800" y1="268" x2="980" y2="268" stroke="#E8E0D4" stroke-width="1" />
    <text x="800" y="300" font-family="Microsoft YaHei, PingFang SC, Arial, sans-serif" font-size="17" fill="#2D2A26">集成学习模型</text>
    <text x="800" y="330" font-family="Microsoft YaHei, PingFang SC, Arial, sans-serif" font-size="17" fill="#2D2A26">关注稳定性和非线性拟合</text>
    <path fill="#C07040" fill-opacity="0.15" d="M806,350 H974 A6,6 0 0 1 980,356 V374 A6,6 0 0 1 974,380 H806 A6,6 0 0 1 800,374 V356 A6,6 0 0 1 806,350 Z" />
    <text x="890" y="370" font-family="Microsoft YaHei, Arial, sans-serif" font-size="16" font-weight="bold" fill="#C07040" text-anchor="middle">最终选择 ✓</text>

    <path fill="#8B6DB0" fill-opacity="0.06" d="M1032,180 H1228 A12,12 0 0 1 1240,192 V448 A12,12 0 0 1 1228,460 H1032 A12,12 0 0 1 1020,448 V192 A12,12 0 0 1 1032,180 Z" />
    <path fill="#8B6DB0" d="M1022,180 H1238 A2,2 0 0 1 1240,182 V183 A2,2 0 0 1 1238,185 H1022 A2,2 0 0 1 1020,183 V182 A2,2 0 0 1 1022,180 Z" />
    <text x="1130" y="218" font-family="Microsoft YaHei, Arial, sans-serif" font-size="20" font-weight="bold" fill="#8B6DB0" text-anchor="middle">MLP</text>
    <text x="1130" y="248" font-family="Microsoft YaHei, PingFang SC, Arial, sans-serif" font-size="16" fill="#8C8578" text-anchor="middle">神经网络回归</text>
    <line x1="1040" y1="268" x2="1220" y2="268" stroke="#E8E0D4" stroke-width="1" />
    <text x="1040" y="300" font-family="Microsoft YaHei, PingFang SC, Arial, sans-serif" font-size="17" fill="#2D2A26">更复杂的非线性模型</text>
    <text x="1040" y="330" font-family="Microsoft YaHei, PingFang SC, Arial, sans-serif" font-size="17" fill="#2D2A26">R² 略高但 RMSE 更大</text>
  </g>

  
  <path fill="#FFF8EE" d="M70,490 H1210 A10,10 0 0 1 1220,500 V570 A10,10 0 0 1 1210,580 H70 A10,10 0 0 1 60,570 V500 A10,10 0 0 1 70,490 Z" />
  <path fill="#C07040" d="M62,490 H1218 A2,2 0 0 1 1220,492 V493 A2,2 0 0 1 1218,495 H62 A2,2 0 0 1 60,493 V492 A2,2 0 0 1 62,490 Z" />
  <text x="80" y="525" font-family="Microsoft YaHei, PingFang SC, Arial, sans-serif" font-size="19" fill="#2D2A26">
    所有模型使用相同的数据划分、相同输入特征和相同 PCA 输出目标，最后用统一指标比较效果。
  </text>
  <text x="80" y="560" font-family="Microsoft YaHei, Arial, sans-serif" font-size="18" fill="#C07040" font-weight="bold">评价维度：MAE / RMSE / R² / 训练时间 / 推理时间</text>

  <g id="footer">
    <text x="60" y="690" font-family="Microsoft YaHei, PingFang SC, Arial, sans-serif" font-size="12" fill="#B0A898">基于真实天光数据的自然光光谱估计与室内照明补偿设计</text>
    <text x="1220" y="690" font-family="Arial, sans-serif" font-size="12" fill="#B0A898" text-anchor="end">09 / 15</text>
  </g>
</svg>